<svg width="24" height="24" viewBox="0 0 24 24" fill="none" xmlns="http://www.w3.org/2000/svg">
<g id="phone">
<path id="Icon" d="M18.7514 16.2771C18.7514 16.2771 17.8484 17.164 17.6271 17.424C17.2666 17.8087 16.8418 17.9904 16.285 17.9904C16.2315 17.9904 16.1744 17.9904 16.1209 17.9868C15.0608 17.9191 14.0757 17.5059 13.3369 17.1533C11.3167 16.1773 9.54277 14.7917 8.06868 13.0357C6.85157 11.5718 6.03779 10.2182 5.49883 8.76495C5.1669 7.87803 5.04554 7.18701 5.09908 6.53518C5.13477 6.11843 5.29539 5.77292 5.59163 5.47728L6.80874 4.26266C6.98363 4.09881 7.16923 4.00977 7.35126 4.00977C7.57613 4.00977 7.75816 4.14512 7.87237 4.2591C7.87594 4.26266 7.87951 4.26623 7.88308 4.26979C8.1008 4.47282 8.30782 4.68297 8.52554 4.90737C8.63619 5.02136 8.7504 5.13534 8.86462 5.25288L9.83902 6.22529C10.2174 6.60286 10.2174 6.95193 9.83902 7.32949C9.73551 7.43279 9.63557 7.53608 9.53206 7.63582C9.23225 7.94214 9.46777 7.7071 9.15725 7.98493C9.15011 7.99206 9.14297 7.99562 9.1394 8.00274C8.83245 8.30907 8.88956 8.60827 8.9538 8.8113C8.95737 8.82199 8.96094 8.83267 8.96451 8.84336C9.21792 9.45601 9.57485 10.033 10.1174 10.7205L10.1209 10.7241C11.106 11.9351 12.1447 12.879 13.2904 13.6021C13.4368 13.6947 13.5867 13.7695 13.7294 13.8408C13.8579 13.9049 13.9793 13.9654 14.0828 14.0295C14.0971 14.0367 14.1113 14.0473 14.1256 14.0545C14.247 14.115 14.3612 14.1435 14.479 14.1435C14.7752 14.1435 14.9608 13.9583 15.0215 13.8977L15.7211 13.1996C15.8425 13.0785 16.0352 12.9324 16.2601 12.9324C16.4814 12.9324 16.6634 13.0713 16.774 13.1924C16.7776 13.196 16.7776 13.196 16.7812 13.1996L18.7478 15.1622C19.1154 15.5255 18.7514 16.2771 18.7514 16.2771Z" stroke="currentColor" stroke-width="1.5" stroke-linecap="round" stroke-linejoin="round"/>
</g>
</svg>
