<svg width="7" height="12" viewBox="0 0 7 12" fill="none" xmlns="http://www.w3.org/2000/svg">
<rect width="7" height="12" fill="#949494"/>
<g id="&#236;&#181;&#156;&#236;&#162;&#133;&#237;&#153;&#148;&#235;&#169;&#180;">
<path d="M-4795 -644C-4795 -645.105 -4794.1 -646 -4793 -646H5870C5871.1 -646 5872 -645.105 5872 -644V11584C5872 11585.1 5871.1 11586 5870 11586H-4793C-4794.1 11586 -4795 11585.1 -4795 11584V-644Z" fill="#6C6C6C"/>
<path d="M-4793 -645H5870V-647H-4793V-645ZM5871 -644V11584H5873V-644H5871ZM5870 11585H-4793V11587H5870V11585ZM-4794 11584V-644H-4796V11584H-4794ZM-4793 11585C-4793.55 11585 -4794 11584.6 -4794 11584H-4796C-4796 11585.7 -4794.66 11587 -4793 11587V11585ZM5871 11584C5871 11584.6 5870.55 11585 5870 11585V11587C5871.66 11587 5873 11585.7 5873 11584H5871ZM5870 -645C5870.55 -645 5871 -644.552 5871 -644H5873C5873 -645.657 5871.66 -647 5870 -647V-645ZM-4793 -647C-4794.66 -647 -4796 -645.657 -4796 -644H-4794C-4794 -644.552 -4793.55 -645 -4793 -645V-647Z" fill="black" fill-opacity="0.1"/>
<g id="#1.1 &#237;&#153;&#136;-&#235;&#167;&#164;&#236;&#158;&#165; &#235;&#170;&#168;&#236;&#149;&#132;&#235;&#179;&#180;&#234;&#184;&#176;" clip-path="url(#clip0_1_3)">
<rect width="375" height="812" transform="translate(-136 -174)" fill="#1A1A1A"/>
<g id="Frame 1686563769">
<g id="Frame 1686563291">
<g id="Frame 1686563290">
<g id="M_horizontal_shop list">
<g id="Frame 1686563081">
<g id="Frame 1686563066">
<g id="Frame 1686562993">
<path id="Vector 2468" d="M1 1.5L5 6L1 10.5" stroke="currentColor" stroke-width="2" stroke-linecap="round"/>
</g>
</g>
</g>
</g>
</g>
</g>
</g>
</g>
</g>
<defs>
<clipPath id="clip0_1_3">
<rect width="375" height="812" fill="white" transform="translate(-136 -174)"/>
</clipPath>
</defs>
</svg>
