<svg width="24" height="24" viewBox="0 0 24 24" fill="none" xmlns="http://www.w3.org/2000/svg">
<g id="clock-01">
<path id="Icon" d="M14.6303 14.2696C15.0232 14.4006 15.448 14.1882 15.5789 13.7953C15.7099 13.4023 15.4976 12.9776 15.1046 12.8466L14.6303 14.2696ZM12 12.6023H11.25C11.25 12.9251 11.4566 13.2117 11.7628 13.3138L12 12.6023ZM12.75 8.60562C12.75 8.19141 12.4142 7.85562 12 7.85562C11.5858 7.85562 11.25 8.19141 11.25 8.60562H12.75ZM15.1046 12.8466L12.2372 11.8908L11.7628 13.3138L14.6303 14.2696L15.1046 12.8466ZM12.75 12.6023V8.60562H11.25V12.6023H12.75ZM18.8965 11.6465C18.8965 15.4553 15.8088 18.543 12 18.543V20.043C16.6373 20.043 20.3965 16.2837 20.3965 11.6465H18.8965ZM12 18.543C8.19118 18.543 5.10352 15.4553 5.10352 11.6465H3.60352C3.60352 16.2837 7.36275 20.043 12 20.043V18.543ZM5.10352 11.6465C5.10352 7.83766 8.19118 4.75 12 4.75V3.25C7.36275 3.25 3.60352 7.00923 3.60352 11.6465H5.10352ZM12 4.75C15.8088 4.75 18.8965 7.83766 18.8965 11.6465H20.3965C20.3965 7.00923 16.6373 3.25 12 3.25V4.75Z" fill="currentColor"/>
</g>
</svg>
