<svg width="138" height="138" viewBox="0 0 138 138" fill="none" xmlns="http://www.w3.org/2000/svg">
<g clip-path="url(#clip0_602_11736)">
<path fill-rule="evenodd" clip-rule="evenodd" d="M107.7 108.422C106.041 109.18 104.826 110.984 104.826 113.135C104.826 115.332 105.726 117.026 107.014 118.478C108.077 119.674 109.363 120.666 110.617 121.632C110.916 121.862 111.211 122.091 111.502 122.32C112.028 122.735 112.497 123.098 112.95 123.363C113.403 123.628 113.766 123.748 114.076 123.748C114.386 123.748 114.75 123.628 115.202 123.363C115.655 123.098 116.124 122.735 116.65 122.32C116.942 122.09 117.237 121.861 117.535 121.633C118.789 120.665 120.075 119.674 121.138 118.478C122.427 117.026 123.326 115.332 123.326 113.135C123.326 110.985 122.111 109.18 120.452 108.422C118.84 107.685 116.674 107.88 114.616 110.019C114.546 110.091 114.462 110.149 114.37 110.188C114.277 110.228 114.177 110.248 114.076 110.248C113.975 110.248 113.876 110.228 113.783 110.188C113.69 110.149 113.606 110.091 113.536 110.019C111.478 107.88 109.312 107.685 107.7 108.422ZM114.076 108.458C111.764 106.388 109.175 106.098 107.076 107.057C104.862 108.072 103.326 110.424 103.326 113.136C103.326 115.801 104.436 117.835 105.893 119.475C107.059 120.788 108.486 121.887 109.747 122.857C110.034 123.077 110.309 123.291 110.573 123.499C111.086 123.903 111.636 124.333 112.193 124.659C112.75 124.985 113.386 125.249 114.076 125.249C114.766 125.249 115.402 124.984 115.959 124.659C116.517 124.333 117.066 123.903 117.579 123.499C117.843 123.291 118.119 123.077 118.405 122.857C119.665 121.887 121.093 120.787 122.259 119.475C123.716 117.835 124.826 115.801 124.826 113.136C124.826 110.424 123.291 108.072 121.076 107.059C118.977 106.099 116.388 106.389 114.076 108.458Z" fill="currentColor" stroke="currentColor"/>
</g>
<defs>
<clipPath id="clip0_602_11736">
<rect width="24" height="24" fill="white" transform="translate(102.076 104)"/>
</clipPath>
</defs>
</svg>
