<svg width="16" height="17" viewBox="0 0 16 17" fill="none" xmlns="http://www.w3.org/2000/svg">
<path d="M5.35355 2.64645C5.15829 2.45118 4.84171 2.45118 4.64645 2.64645L1.46447 5.82843C1.2692 6.02369 1.2692 6.34027 1.46447 6.53553C1.65973 6.7308 1.97631 6.7308 2.17157 6.53553L5 3.70711L7.82843 6.53553C8.02369 6.7308 8.34027 6.7308 8.53553 6.53553C8.7308 6.34027 8.7308 6.02369 8.53553 5.82843L5.35355 2.64645ZM4.5 3V14H5.5V3H4.5Z" fill="#E8E8E8"/>
<path d="M11.3536 14.3536C11.1583 14.5488 10.8417 14.5488 10.6464 14.3536L7.46447 11.1716C7.2692 10.9763 7.2692 10.6597 7.46447 10.4645C7.65973 10.2692 7.97631 10.2692 8.17157 10.4645L11 13.2929L13.8284 10.4645C14.0237 10.2692 14.3403 10.2692 14.5355 10.4645C14.7308 10.6597 14.7308 10.9763 14.5355 11.1716L11.3536 14.3536ZM10.5 14V3H11.5V14H10.5Z" fill="#E8E8E8"/>
</svg>
