<svg width="24" height="20" viewBox="0 0 24 20" fill="none" xmlns="http://www.w3.org/2000/svg">
<path id="Icon" fill-rule="evenodd" clip-rule="evenodd" d="M1.87519 1.77995C2.96975 0.685721 4.4541 0.0710166 6.00181 0.0710166C7.54951 0.0710166 9.03386 0.685721 10.1284 1.77995L11.8386 3.48867L13.5488 1.77995C14.0872 1.22248 14.7313 0.777818 15.4434 0.471917C16.1555 0.166017 16.9214 0.00500184 17.6964 -0.00173275C18.4714 -0.00846734 19.24 0.139214 19.9573 0.432693C20.6746 0.726172 21.3263 1.15957 21.8744 1.7076C22.4224 2.25564 22.8558 2.90733 23.1493 3.62465C23.4427 4.34197 23.5904 5.11055 23.5837 5.88556C23.577 6.66057 23.4159 7.42647 23.11 8.13858C22.8041 8.8507 22.3595 9.49475 21.802 10.0332L11.8386 19.998L1.87519 10.0332C0.780964 8.93862 0.16626 7.45428 0.16626 5.90657C0.16626 4.35886 0.780964 2.87451 1.87519 1.77995Z" fill="#F1404C"/>
</svg>
