<svg xmlns="http://www.w3.org/2000/svg" width="26" height="22" viewBox="0 0 26 22" fill="none">
  <path fill-rule="evenodd" clip-rule="evenodd" d="M2.87495 2.7819C3.96951 1.68767 5.45385 1.07297 7.00156 1.07297C8.54927 1.07297 10.0336 1.68767 11.1282 2.7819L12.8384 4.49063L14.5485 2.7819C15.087 2.22443 15.731 1.77977 16.4431 1.47387C17.1552 1.16797 17.9211 1.00695 18.6962 1.00022C19.4712 0.993486 20.2397 1.14117 20.9571 1.43465C21.6744 1.72813 22.3261 2.16152 22.8741 2.70956C23.4221 3.25759 23.8555 3.90928 24.149 4.6266C24.4425 5.34392 24.5902 6.11251 24.5834 6.88751C24.5767 7.66252 24.4157 8.42842 24.1098 9.14054C23.8039 9.85265 23.3592 10.4967 22.8018 11.0351L12.8384 21L2.87495 11.0351C1.78072 9.94057 1.16602 8.45623 1.16602 6.90852C1.16602 5.36081 1.78072 3.87647 2.87495 2.7819Z" stroke="currentColor" stroke-width="1.5" stroke-linejoin="round"/>
</svg>