<svg width="29" height="28" viewBox="0 0 29 28" fill="none" xmlns="http://www.w3.org/2000/svg">
<g id="Frame 1686563997" clip-path="url(#clip0_2775_21050)">
<path id="Subtract" d="M1.375 3.99805V3.24805H0.440086L0.642852 4.16071L1.375 3.99805ZM5.8184 23.998L5.08625 24.1607L5.21674 24.748H5.8184V23.998ZM23.5983 3.99805H24.3483V3.24805H23.5983V3.99805ZM23.5983 23.998V24.748H24.3483V23.998H23.5983ZM19.155 23.998H18.405V24.748H19.155V23.998ZM19.155 15.1082H19.905V14.3582H19.155V15.1082ZM10.265 15.1082V14.3582H9.51503V15.1082H10.265ZM10.265 23.998V24.748H11.015V23.998H10.265ZM0.642852 4.16071L5.08625 24.1607L6.55055 23.8354L2.10715 3.83539L0.642852 4.16071ZM23.5983 3.24805H1.375V4.74805H23.5983V3.24805ZM24.3483 23.998V3.99805H22.8483V23.998H24.3483ZM19.155 24.748H23.5983V23.248H19.155V24.748ZM19.905 23.998V15.1082H18.405V23.998H19.905ZM19.155 14.3582H10.265V15.8582H19.155V14.3582ZM9.51503 15.1082V23.998H11.015V15.1082H9.51503ZM5.8184 24.748H10.265V23.248H5.8184V24.748Z" fill="currentColor"/>
</g>
<defs>
<clipPath id="clip0_2775_21050">
<rect width="28" height="28" fill="white" transform="translate(0.375 -0.00195312)"/>
</clipPath>
</defs>
</svg>
