<svg xmlns="http://www.w3.org/2000/svg" width="25" height="22" viewBox="0 0 25 22" fill="none">
  <path d="M1.26367 1V0.25H0.328758L0.531523 1.16266L1.26367 1ZM5.70707 21L4.97492 21.1627L5.10541 21.75H5.70707V21ZM23.4869 1H24.2369V0.25H23.4869V1ZM23.4869 21V21.75H24.2369V21H23.4869ZM19.0436 21H18.2936V21.75H19.0436V21ZM19.0436 12.1101H19.7936V11.3601H19.0436V12.1101ZM10.1537 12.1101V11.3601H9.4037V12.1101H10.1537ZM10.1537 21V21.75H10.9037V21H10.1537ZM0.531523 1.16266L4.97492 21.1627L6.43922 20.8373L1.99582 0.837339L0.531523 1.16266ZM23.4869 0.25H1.26367V1.75H23.4869V0.25ZM24.2369 21V1H22.7369V21H24.2369ZM19.0436 21.75H23.4869V20.25H19.0436V21.75ZM19.7936 21V12.1101H18.2936V21H19.7936ZM19.0436 11.3601H10.1537V12.8601H19.0436V11.3601ZM9.4037 12.1101V21H10.9037V12.1101H9.4037ZM5.70707 21.75H10.1537V20.25H5.70707V21.75Z" fill="currentColor"/>
</svg>