<svg width="25" height="22" viewBox="0 0 25 22" fill="none" xmlns="http://www.w3.org/2000/svg">
<g id="Exclude">
<path fill-rule="evenodd" clip-rule="evenodd" d="M0.458984 21.5H1.48337H22.7901H23.7901V20.5V1.5V0.5H22.7901H5.12455L0.681154 20.5L0.458984 21.5ZM1.70554 20.5H22.7901V1.5H5.92677L1.70554 20.5ZM18.8911 8.40358L12.609 14.1459L12.103 14.6085L11.597 14.1459L7.85155 10.7223L8.86358 9.61516L12.103 12.5762L17.8791 7.29642L18.8911 8.40358Z" fill="#6E6E6E"/>
<path d="M0.458984 21.5L0.214935 21.4458L0.147346 21.75H0.458984V21.5ZM23.7901 21.5V21.75H24.0401V21.5H23.7901ZM23.7901 0.5H24.0401V0.25H23.7901V0.5ZM5.12455 0.5V0.25H4.924L4.8805 0.44578L5.12455 0.5ZM0.681154 20.5L0.925204 20.5542L0.681154 20.5ZM22.7901 20.5V20.75H23.0401V20.5H22.7901ZM1.70554 20.5L1.46149 20.4458L1.3939 20.75H1.70554V20.5ZM22.7901 1.5H23.0401V1.25H22.7901V1.5ZM5.92677 1.5V1.25H5.72621L5.68272 1.44578L5.92677 1.5ZM12.609 14.1459L12.4403 13.9614L12.609 14.1459ZM18.8911 8.40358L19.0598 8.5881L19.2443 8.41943L19.0756 8.23491L18.8911 8.40358ZM12.103 14.6085L11.9343 14.793L12.103 14.9472L12.2717 14.793L12.103 14.6085ZM11.597 14.1459L11.7657 13.9614L11.597 14.1459ZM7.85155 10.7223L7.66703 10.5536L7.49835 10.7382L7.68288 10.9068L7.85155 10.7223ZM8.86358 9.61516L9.03226 9.43063L8.84773 9.26196L8.67906 9.44648L8.86358 9.61516ZM12.103 12.5762L11.9343 12.7608L12.103 12.915L12.2717 12.7608L12.103 12.5762ZM17.8791 7.29642L18.0636 7.12775L17.8949 6.94322L17.7104 7.1119L17.8791 7.29642ZM1.48337 21.25H0.458984V21.75H1.48337V21.25ZM22.7901 21.25H1.48337V21.75H22.7901V21.25ZM23.7901 21.25H22.7901V21.75H23.7901V21.25ZM23.5401 20.5V21.5H24.0401V20.5H23.5401ZM23.5401 1.5V20.5H24.0401V1.5H23.5401ZM23.5401 0.5V1.5H24.0401V0.5H23.5401ZM22.7901 0.75H23.7901V0.25H22.7901V0.75ZM5.12455 0.75H22.7901V0.25H5.12455V0.75ZM0.925204 20.5542L5.3686 0.55422L4.8805 0.44578L0.437105 20.4458L0.925204 20.5542ZM0.703034 21.5542L0.925204 20.5542L0.437105 20.4458L0.214935 21.4458L0.703034 21.5542ZM22.7901 20.25H1.70554V20.75H22.7901V20.25ZM22.5401 1.5V20.5H23.0401V1.5H22.5401ZM5.92677 1.75H22.7901V1.25H5.92677V1.75ZM1.94959 20.5542L6.17081 1.55422L5.68272 1.44578L1.46149 20.4458L1.94959 20.5542ZM12.7777 14.3305L19.0598 8.5881L18.7224 8.21905L12.4403 13.9614L12.7777 14.3305ZM12.2717 14.793L12.7777 14.3305L12.4403 13.9614L11.9343 14.424L12.2717 14.793ZM11.4283 14.3305L11.9343 14.793L12.2717 14.424L11.7657 13.9614L11.4283 14.3305ZM7.68288 10.9068L11.4283 14.3305L11.7657 13.9614L8.02022 10.5378L7.68288 10.9068ZM8.67906 9.44648L7.66703 10.5536L8.03608 10.891L9.04811 9.78383L8.67906 9.44648ZM12.2717 12.3917L9.03226 9.43063L8.69491 9.79968L11.9343 12.7608L12.2717 12.3917ZM17.7104 7.1119L11.9343 12.3917L12.2717 12.7608L18.0478 7.48095L17.7104 7.1119ZM19.0756 8.23491L18.0636 7.12775L17.6946 7.46509L18.7066 8.57225L19.0756 8.23491Z" fill="currentColor"/>
</g>
</svg>
