<svg width="29" height="28" viewBox="0 0 29 28" fill="none" xmlns="http://www.w3.org/2000/svg">
<path fill-rule="evenodd" clip-rule="evenodd" d="M6.4594 6.52179C7.39422 5.58725 8.66194 5.06226 9.98377 5.06226C11.3056 5.06226 12.5733 5.58725 13.5081 6.52179L14.9687 7.98113L16.4293 6.52179C16.8892 6.04567 17.4392 5.66591 18.0474 5.40465C18.6556 5.14339 19.3097 5.00588 19.9716 5.00013C20.6335 4.99438 21.2899 5.1205 21.9026 5.37115C22.5152 5.6218 23.0718 5.99195 23.5398 6.46C24.0079 6.92805 24.378 7.48463 24.6287 8.09726C24.8793 8.70989 25.0054 9.36631 24.9997 10.0282C24.9939 10.6901 24.8564 11.3442 24.5952 11.9524C24.3339 12.5606 23.9541 13.1107 23.478 13.5705L14.9687 22.0811L6.4594 13.5705C5.52487 12.6357 4.99988 11.368 4.99988 10.0461C4.99988 8.72432 5.52487 7.4566 6.4594 6.52179V6.52179Z" stroke="currentColor" stroke-width="2" stroke-linejoin="round"/>
</svg>
