<svg width="55" height="22" viewBox="0 0 55 22" fill="none" xmlns="http://www.w3.org/2000/svg">
<rect width="55" height="22" fill="currentColor"/>
<g id="&#236;&#181;&#156;&#236;&#162;&#133;&#237;&#153;&#148;&#235;&#169;&#180;">
<path d="M-4115 -539C-4115 -540.105 -4114.1 -541 -4113 -541H6550C6551.1 -541 6552 -540.105 6552 -539V11689C6552 11690.1 6551.1 11691 6550 11691H-4113C-4114.1 11691 -4115 11690.1 -4115 11689V-539Z" fill="#6C6C6C"/>
<path d="M-4113 -540H6550V-542H-4113V-540ZM6551 -539V11689H6553V-539H6551ZM6550 11690H-4113V11692H6550V11690ZM-4114 11689V-539H-4116V11689H-4114ZM-4113 11690C-4113.55 11690 -4114 11689.6 -4114 11689H-4116C-4116 11690.7 -4114.66 11692 -4113 11692V11690ZM6551 11689C6551 11689.6 6550.55 11690 6550 11690V11692C6551.66 11692 6553 11690.7 6553 11689H6551ZM6550 -540C6550.55 -540 6551 -539.552 6551 -539H6553C6553 -540.657 6551.66 -542 6550 -542V-540ZM-4113 -542C-4114.66 -542 -4116 -540.657 -4116 -539H-4114C-4114 -539.552 -4113.55 -540 -4113 -540V-542Z" fill="black" fill-opacity="0.1"/>
<g id="&#237;&#153;&#136;-&#237;&#149;&#132;&#237;&#132;&#176;: &#236;&#132;&#184;&#235;&#182;&#128; &#236;&#162;&#133;&#235;&#165;&#152;-&#236;&#160;&#129;&#236;&#154;&#169;" clip-path="url(#clip0_1_3)">
<rect width="375" height="812" transform="translate(-16 -69)" fill="#1A1A1A"/>
<g id="Frame 1686563494">
<g id="Frame 1686563487">
<g id="Frame 1686563484">
<g id="home TNB">
<g id="TNB">
<g id="logo">
<path id="Vector" d="M23.4991 18.1101H20.6507V0.307129H17.0977V16.2531C17.0977 19.3427 18.7965 21.0308 22.0709 21.0308C25.3453 21.0308 27.0441 19.3453 27.0441 16.2531V0.307129H23.5045V18.1127L23.4991 18.1101Z" fill="#F3F3F3"/>
<path id="Vector_2" d="M0 0.307129H5.39394L7.09277 12.0382L7.6126 17.0972H7.69567L8.2155 12.0382L9.91702 0.307129H15.311V20.8191H12.3876V3.81734H12.3045L11.573 9.07194L9.8018 20.8164H5.5038L3.73261 9.07194L3.0011 3.81734H2.91803V20.8164H0V0.307129Z" fill="#F3F3F3"/>
<path id="Vector_3" d="M41.4386 0.307129H46.9183L49.6997 20.8191H46.0742L45.6804 17.1374H42.6873L42.3068 20.8191H38.668L41.4386 0.307129ZM45.4017 14.3694L44.2066 3.03223H44.1503L42.9713 14.3694H45.4017Z" fill="#F3F3F3"/>
<path id="Vector_4" d="M51.4873 0.307129H55.0002V20.8191H51.4873V0.307129Z" fill="#F3F3F3"/>
<path id="Vector_5" d="M37.7741 7.31758V4.563C37.7741 1.72536 36.0753 0.0961914 32.8572 0.0961914C29.639 0.0961914 27.9402 1.73876 27.9402 4.563V5.74201C27.9402 8.38404 28.9236 9.67559 30.9895 11.1359L32.7446 12.3712C33.8834 13.1724 34.2612 13.8182 34.2612 15.1258V18.1081H31.4504V13.3975H27.9375V16.5594C27.9375 19.3836 29.6363 21.0262 32.8679 21.0262C36.0994 21.0262 37.7714 19.3836 37.7714 16.546V15.0561C37.7714 12.3176 36.8149 11.01 34.7221 9.57644L32.9509 8.36797C31.7987 7.58018 31.4477 6.87814 31.4477 5.68574V3.01154H34.272V7.31758H37.7688H37.7741Z" fill="#F3F3F3"/>
</g>
</g>
</g>
</g>
</g>
</g>
</g>
</g>
<defs>
<clipPath id="clip0_1_3">
<rect width="375" height="812" fill="white" transform="translate(-16 -69)"/>
</clipPath>
</defs>
</svg>
