<svg width="56" height="22" viewBox="0 0 56 22" fill="none" xmlns="http://www.w3.org/2000/svg">
<path d="M24.3365 18.7888H21.4881V0.98584H17.9351V16.9318C17.9351 20.0214 19.6339 21.7095 22.9083 21.7095C26.1827 21.7095 27.8816 20.0241 27.8816 16.9318V0.98584H24.3419V18.7915L24.3365 18.7888Z" fill="#F3F3F3"/>
<path d="M0.837402 0.98584H6.23134L7.93017 12.7169L8.45001 17.7759H8.53307L9.05291 12.7169L10.7544 0.98584H16.1484V21.4978H13.225V4.49605H13.1419L12.4104 9.75065L10.6392 21.4951H6.3412L4.57002 9.75065L3.8385 4.49605H3.75543V21.4951H0.837402V0.98584Z" fill="#F3F3F3"/>
<path d="M42.276 0.98584H47.7557L50.5371 21.4978H46.9117L46.5178 17.8161H43.5247L43.1442 21.4978H39.5054L42.276 0.98584ZM46.2391 15.0481L45.044 3.71094H44.9877L43.8087 15.0481H46.2391Z" fill="#F3F3F3"/>
<path d="M52.3247 0.98584H55.8376V21.4978H52.3247V0.98584Z" fill="#F3F3F3"/>
<path d="M38.6115 7.99629V5.24171C38.6115 2.40407 36.9127 0.774902 33.6946 0.774902C30.4764 0.774902 28.7776 2.41747 28.7776 5.24171V6.42072C28.7776 9.06275 29.761 10.3543 31.8269 11.8147L33.582 13.0499C34.7208 13.8511 35.0986 14.4969 35.0986 15.8045V18.7868H32.2878V14.0762H28.7749V17.2381C28.7749 20.0623 30.4737 21.7049 33.7053 21.7049C36.9368 21.7049 38.6089 20.0623 38.6089 17.2247V15.7348C38.6089 12.9963 37.6523 11.6887 35.5595 10.2552L33.7883 9.04668C32.6361 8.25889 32.2851 7.55685 32.2851 6.36445V3.69025H35.1094V7.99629H38.6062H38.6115Z" fill="#F3F3F3"/>
</svg>
