<svg width="51" height="26" viewBox="0 0 51 26" fill="none" xmlns="http://www.w3.org/2000/svg">
<path fill-rule="evenodd" clip-rule="evenodd" d="M36.3085 14.0348C36.3114 14.0401 36.3144 14.0454 36.3173 14.0507L36.3087 14.0334L36.3085 14.0348ZM34.4168 11.4677C35.1726 12.2708 35.8003 13.125 36.3085 14.0348L35.1381 21.955L35.8379 23.9765C35.7342 24.0758 35.6262 24.1665 35.5139 24.2486C34.8099 24.7669 33.8294 25.0261 32.5638 25.0261C31.566 25.0261 30.7497 24.8533 30.1061 24.5121C29.4625 24.1709 28.9615 23.6785 28.603 23.0435C28.2445 22.4086 27.994 21.644 27.8557 20.7586C27.7175 19.8731 27.6484 18.8797 27.6484 17.7826V15.4976H30.7367V17.964C30.7367 19.506 30.8534 20.6074 31.0909 21.2726C31.3285 21.9378 31.8209 22.2703 32.5681 22.2703C33.0778 22.2703 33.4536 22.1537 33.7041 21.9118C33.9503 21.6743 34.1144 21.2899 34.1879 20.7629C34.2613 20.2359 34.3002 19.5405 34.3002 18.6723C34.3002 17.6573 34.1101 16.7675 33.7257 15.9944C33.3413 15.2212 32.7798 14.4524 32.0412 13.6878L30.3523 11.999C29.8815 11.5023 29.428 10.9667 29.0004 10.4008C28.5727 9.835 28.2229 9.19574 27.9551 8.48305C27.6873 7.77468 27.5534 6.96697 27.5534 6.05991C27.5534 4.81162 27.6959 3.74043 27.981 2.84633C28.2704 1.95223 28.7628 1.26545 29.4712 0.790326C30.1795 0.3152 31.1687 0.0776367 32.4429 0.0776367C33.432 0.0776367 34.2311 0.241771 34.8401 0.57004C35.4491 0.89399 35.9156 1.3648 36.2396 1.97382C36.5635 2.58285 36.7838 3.31281 36.9047 4.16372C37.0257 5.01463 37.0861 5.96488 37.0861 7.0188V8.48737H34.0669V6.81147C34.0669 5.92601 34.0281 5.19172 33.9503 4.60429C33.8726 4.01687 33.7171 3.57629 33.4881 3.28258C33.2592 2.98455 32.9137 2.83769 32.4515 2.83769C32.0153 2.83769 31.6654 2.94135 31.3976 3.14436C31.1298 3.34737 30.9354 3.65836 30.8145 4.07734C30.6935 4.50063 30.6331 5.04055 30.6331 5.70572C30.6331 6.29747 30.7065 6.78988 30.849 7.18725C30.9916 7.58463 31.2162 7.96041 31.5142 8.3146C31.8166 8.6731 32.1794 9.07912 32.6156 9.54129L34.4168 11.4677ZM1.7531 24.7539L0.837402 21.9766V0.379905H4.68592L8.31416 19.1733L11.7653 0.379905H15.6311V24.7539H13.7954L12.8322 21.9766V15.5839L13.0265 6.80275L9.51061 24.7107H7.08747L3.429 6.80707L3.62337 15.5883V24.7582H1.7531V24.7539ZM21.7194 25.0476C20.4937 25.0473 19.5053 24.8098 18.7628 24.3349C18.0199 23.8598 17.4799 23.1385 17.1474 22.1666C16.8148 21.1991 16.6506 19.9724 16.6506 18.4952V0.379905H19.8772V18.4261C19.8772 19.2208 19.9074 19.9076 19.9679 20.4907C20.0283 21.0738 20.1882 21.5187 20.4473 21.834C20.7065 22.1493 21.1298 22.3048 21.7215 22.3048C22.3133 22.3048 22.7366 22.1493 22.9871 21.8427C23.2419 21.5317 23.3974 21.0868 23.4492 20.508C23.5054 19.9249 23.5313 19.2381 23.5313 18.4433V0.379905H26.7449V18.4952C26.7449 19.9724 26.5851 21.1948 26.2611 22.1666C25.9372 23.1341 25.4102 23.8598 24.6759 24.3349C23.9421 24.8098 22.958 25.0473 21.7194 25.0476ZM36.1246 21.9765L37.0878 24.7539H37.0921H38.794L39.39 20.2229H43.6014L43.8519 21.9765L45.057 24.7539H47.2685L43.3768 0.379905H39.3166L36.1246 21.9765ZM43.2213 17.6356H39.7183H39.714L41.3769 5.01886H41.4201L43.2213 17.6356ZM48.9498 24.7539L47.6108 21.9765V0.379905H50.8374V24.7539H48.9498Z" fill="#F1404C"/>
</svg>
