<svg width="51" height="26" viewBox="0 0 51 26" fill="none" xmlns="http://www.w3.org/2000/svg">
<path fill-rule="evenodd" clip-rule="evenodd" d="M36.3085 14.7672C36.3114 14.7725 36.3144 14.7778 36.3173 14.7831L36.3087 14.7658L36.3085 14.7672ZM34.4168 12.2001C35.1726 13.0032 35.8003 13.8575 36.3085 14.7672L35.1381 22.6875L35.8379 24.7089C35.7342 24.8083 35.6262 24.899 35.5139 24.981C34.8099 25.4993 33.8294 25.7585 32.5638 25.7585C31.566 25.7585 30.7497 25.5857 30.1061 25.2445C29.4625 24.9033 28.9615 24.4109 28.603 23.7759C28.2445 23.141 27.994 22.3765 27.8557 21.491C27.7175 20.6055 27.6484 19.6121 27.6484 18.515V16.2301H30.7367V18.6964C30.7367 20.2384 30.8534 21.3398 31.0909 22.005C31.3285 22.6702 31.8209 23.0028 32.5681 23.0028C33.0778 23.0028 33.4536 22.8862 33.7041 22.6443C33.9503 22.4067 34.1144 22.0223 34.1879 21.4953C34.2613 20.9684 34.3002 20.273 34.3002 19.4048C34.3002 18.3897 34.1101 17.4999 33.7257 16.7268C33.3413 15.9536 32.7798 15.1848 32.0412 14.4203L30.3523 12.7314C29.8815 12.2347 29.428 11.6991 29.0004 11.1333C28.5727 10.5674 28.2229 9.92816 27.9551 9.21547C27.6873 8.5071 27.5534 7.69939 27.5534 6.79233C27.5534 5.54404 27.6959 4.47285 27.981 3.57875C28.2704 2.68465 28.7628 1.99787 29.4712 1.52275C30.1795 1.04762 31.1687 0.810059 32.4429 0.810059C33.432 0.810059 34.2311 0.974193 34.8401 1.30246C35.4491 1.62641 35.9156 2.09722 36.2396 2.70624C36.5635 3.31527 36.7838 4.04524 36.9047 4.89614C37.0257 5.74705 37.0861 6.6973 37.0861 7.75122V9.21979H34.0669V7.54389C34.0669 6.65843 34.0281 5.92414 33.9503 5.33672C33.8726 4.74929 33.7171 4.30872 33.4881 4.015C33.2592 3.71697 32.9137 3.57011 32.4515 3.57011C32.0153 3.57011 31.6654 3.67377 31.3976 3.87678C31.1298 4.07979 30.9354 4.39078 30.8145 4.80976C30.6935 5.23305 30.6331 5.77297 30.6331 6.43814C30.6331 7.02989 30.7065 7.5223 30.849 7.91967C30.9916 8.31705 31.2162 8.69283 31.5142 9.04702C31.8166 9.40552 32.1794 9.81154 32.6156 10.2737L34.4168 12.2001ZM1.7531 25.4863L0.837402 22.709V1.11233H4.68592L8.31416 19.9057L11.7653 1.11233H15.6311V25.4863H13.7954L12.8322 22.709V16.3164L13.0265 7.53517L9.51061 25.4431H7.08747L3.429 7.53949L3.62337 16.3207V25.4906H1.7531V25.4863ZM21.7194 25.78C20.4937 25.7797 19.5053 25.5422 18.7628 25.0673C18.0199 24.5922 17.4799 23.8709 17.1474 22.899C16.8148 21.9315 16.6506 20.7048 16.6506 19.2276V1.11233H19.8772V19.1585C19.8772 19.9532 19.9074 20.64 19.9679 21.2231C20.0283 21.8062 20.1882 22.2511 20.4473 22.5664C20.7065 22.8817 21.1298 23.0372 21.7215 23.0372C22.3133 23.0372 22.7366 22.8817 22.9871 22.5751C23.2419 22.2641 23.3974 21.8192 23.4492 21.2404C23.5054 20.6573 23.5313 19.9705 23.5313 19.1758V1.11233H26.7449V19.2276C26.7449 20.7048 26.5851 21.9272 26.2611 22.899C25.9372 23.8666 25.4102 24.5922 24.6759 25.0673C23.9421 25.5422 22.958 25.7797 21.7194 25.78ZM36.1246 22.709L37.0878 25.4863H37.0921H38.794L39.39 20.9553H43.6014L43.8519 22.709L45.057 25.4863H47.2685L43.3768 1.11233H39.3166L36.1246 22.709ZM43.2213 18.368H39.7183H39.714L41.3769 5.75129H41.4201L43.2213 18.368ZM48.9498 25.4863L47.6108 22.709V1.11233H50.8374V25.4863H48.9498Z" fill="#F3F3F3"/>
</svg>
