<svg width="24" height="20" viewBox="0 0 24 20" fill="none" xmlns="http://www.w3.org/2000/svg">
<path fill-rule="evenodd" clip-rule="evenodd" d="M5.70017 2.42163C4.04117 3.17963 2.82617 4.98363 2.82617 7.13463C2.82617 9.33163 3.72617 11.0256 5.01417 12.4776C6.07717 13.6736 7.36317 14.6656 8.61717 15.6316C8.91584 15.8616 9.21084 16.091 9.50217 16.3196C10.0282 16.7346 10.4972 17.0976 10.9502 17.3626C11.4032 17.6276 11.7662 17.7476 12.0762 17.7476C12.3862 17.7476 12.7502 17.6276 13.2022 17.3626C13.6552 17.0976 14.1242 16.7346 14.6502 16.3196C14.9415 16.0903 15.2365 15.8613 15.5352 15.6326C16.7892 14.6646 18.0752 13.6736 19.1382 12.4776C20.4272 11.0256 21.3262 9.33163 21.3262 7.13463C21.3262 4.98463 20.1112 3.17963 18.4522 2.42163C16.8402 1.68463 14.6742 1.87963 12.6162 4.01863C12.5462 4.09121 12.4623 4.14895 12.3695 4.18839C12.2768 4.22782 12.177 4.24815 12.0762 4.24815C11.9754 4.24815 11.8756 4.22782 11.7828 4.18839C11.69 4.14895 11.6061 4.09121 11.5362 4.01863C9.47817 1.87963 7.31217 1.68463 5.70017 2.42163ZM12.0762 2.45763C9.76417 0.387628 7.17517 0.0976276 5.07617 1.05663C2.86217 2.07163 1.32617 4.42363 1.32617 7.13563C1.32617 9.80063 2.43617 11.8346 3.89317 13.4746C5.05917 14.7876 6.48617 15.8866 7.74717 16.8566C8.03384 17.0766 8.30917 17.2906 8.57317 17.4986C9.08617 17.9026 9.63617 18.3326 10.1932 18.6586C10.7502 18.9846 11.3862 19.2486 12.0762 19.2486C12.7662 19.2486 13.4022 18.9836 13.9592 18.6586C14.5172 18.3326 15.0662 17.9026 15.5792 17.4986C15.8432 17.2906 16.1185 17.0766 16.4052 16.8566C17.6652 15.8866 19.0932 14.7866 20.2592 13.4746C21.7162 11.8346 22.8262 9.80063 22.8262 7.13563C22.8262 4.42363 21.2912 2.07163 19.0762 1.05863C16.9772 0.0986277 14.3882 0.388628 12.0762 2.45763Z" fill="#8E8E8E" stroke="#8E8E8E"/>
</svg>
