<svg width="24" height="24" viewBox="0 0 24 24" fill="none" xmlns="http://www.w3.org/2000/svg">
<path fill-rule="evenodd" clip-rule="evenodd" d="M5.624 4.42163C3.965 5.17963 2.75 6.98363 2.75 9.13463C2.75 11.3316 3.65 13.0256 4.938 14.4776C6.001 15.6736 7.287 16.6656 8.541 17.6316C8.83967 17.8616 9.13467 18.091 9.426 18.3196C9.952 18.7346 10.421 19.0976 10.874 19.3626C11.327 19.6276 11.69 19.7476 12 19.7476C12.31 19.7476 12.674 19.6276 13.126 19.3626C13.579 19.0976 14.048 18.7346 14.574 18.3196C14.8653 18.0903 15.1603 17.8613 15.459 17.6326C16.713 16.6646 17.999 15.6736 19.062 14.4776C20.351 13.0256 21.25 11.3316 21.25 9.13463C21.25 6.98463 20.035 5.17963 18.376 4.42163C16.764 3.68463 14.598 3.87963 12.54 6.01863C12.47 6.09121 12.3862 6.14895 12.2934 6.18839C12.2006 6.22782 12.1008 6.24815 12 6.24815C11.8992 6.24815 11.7994 6.22782 11.7066 6.18839C11.6138 6.14895 11.53 6.09121 11.46 6.01863C9.402 3.87963 7.236 3.68463 5.624 4.42163ZM12 4.45763C9.688 2.38763 7.099 2.09763 5 3.05663C2.786 4.07163 1.25 6.42363 1.25 9.13563C1.25 11.8006 2.36 13.8346 3.817 15.4746C4.983 16.7876 6.41 17.8866 7.671 18.8566C7.95767 19.0766 8.233 19.2906 8.497 19.4986C9.01 19.9026 9.56 20.3326 10.117 20.6586C10.674 20.9846 11.31 21.2486 12 21.2486C12.69 21.2486 13.326 20.9836 13.883 20.6586C14.441 20.3326 14.99 19.9026 15.503 19.4986C15.767 19.2906 16.0423 19.0766 16.329 18.8566C17.589 17.8866 19.017 16.7866 20.183 15.4746C21.64 13.8346 22.75 11.8006 22.75 9.13563C22.75 6.42363 21.215 4.07163 19 3.05863C16.901 2.09863 14.312 2.38863 12 4.45763Z" fill="#8E8E8E"/>
</svg>
